<?xml version="1.0" encoding="UTF-8"?><svg id="Calque_1" xmlns="http://www.w3.org/2000/svg" width="1622.58" height="819.5" viewBox="0 0 1622.58 819.5"><defs><style>.cls-1,.cls-2,.cls-3,.cls-4,.cls-5,.cls-6{stroke:#000;stroke-miterlimit:10;}.cls-1,.cls-2,.cls-3,.cls-6{stroke-width:14.86px;}.cls-1,.cls-4{fill:none;}.cls-7,.cls-2{fill:#000;}.cls-7,.cls-8{stroke-width:0px;}.cls-3{fill:blue;}.cls-4{stroke-width:5.57px;}.cls-5{stroke-width:14.88px;}.cls-5,.cls-6,.cls-8{fill:#fff;}.cls-9{isolation:isolate;}</style></defs><path class="cls-6" d="M53.8,150.96l-36.25,31.72c-6.43,5.63-10.12,13.76-10.12,22.3v271.94c0,16.37,13.27,29.64,29.64,29.64h300.94c16.37,0,29.64-13.27,29.64-29.64V207.82c0-8.66-3.79-16.89-10.38-22.52l-40.41-34.56c-5.37-4.59-12.2-7.11-19.26-7.11H73.32c-7.18,0-14.11,2.61-19.52,7.33Z"/><path class="cls-3" d="M13.04,494.22l45.7-90.19s-45.7,90.19-45.7,90.19Z"/><rect class="cls-6" x="55.34" y="143.62" width="260.05" height="266.9" rx="12.9" ry="12.9"/><g class="cls-9"><g class="cls-9"><path class="cls-7" d="M134.3,345.89l49.55-129.02h18.39l52.8,129.02h-19.45l-15.05-39.08h-53.95l-14.17,39.08h-18.13ZM171.52,292.91h43.74l-13.47-35.73c-4.11-10.85-7.16-19.77-9.15-26.75-1.64,8.27-3.96,16.49-6.95,24.64l-14.17,37.84Z"/></g><g class="cls-9"><path class="cls-4" d="M134.3,345.89l49.55-129.02h18.39l52.8,129.02h-19.45l-15.05-39.08h-53.95l-14.17,39.08h-18.13ZM171.52,292.91h43.74l-13.47-35.73c-4.11-10.85-7.16-19.77-9.15-26.75-1.64,8.27-3.96,16.49-6.95,24.64l-14.17,37.84Z"/></g></g><path class="cls-5" d="M1158.75,154l-52.71,58.69c-9.35,10.41-14.72,25.46-14.72,41.28v503.24c0,30.29,19.3,54.85,43.1,54.85h437.62c23.8,0,43.1-24.56,43.1-54.85v-497.98c0-16.03-5.51-31.26-15.09-41.68l-58.77-63.95c-7.81-8.49-17.74-13.16-28.01-13.16h-326.15c-10.44,0-20.52,4.82-28.38,13.57h.01Z"/><path class="cls-2" d="M360.21,503.52l-47.75-93.01,47.75,93.01Z"/><path class="cls-6" d="M414.02,150.96l-36.25,31.72c-6.43,5.63-10.12,13.76-10.12,22.3v271.94c0,16.37,13.27,29.64,29.64,29.64h300.94c16.37,0,29.64-13.27,29.64-29.64V207.82c0-8.66-3.79-16.89-10.38-22.52l-40.41-34.56c-5.37-4.59-12.2-7.11-19.26-7.11h-224.28c-7.18,0-14.11,2.61-19.52,7.33h0Z"/><path class="cls-3" d="M373.26,494.22l45.7-90.19-45.7,90.19Z"/><rect class="cls-6" x="415.55" y="143.62" width="260.05" height="266.9" rx="16.44" ry="16.44"/><g class="cls-9"><g class="cls-9"><path class="cls-7" d="M498.39,345.89v-15.84l66.09-82.64c4.69-5.87,9.15-10.97,13.38-15.31h-71.99v-15.23h92.41v15.23l-72.43,89.5-7.83,9.06h82.38v15.23h-102Z"/></g><g class="cls-9"><path class="cls-4" d="M498.39,345.89v-15.84l66.09-82.64c4.69-5.87,9.15-10.97,13.38-15.31h-71.99v-15.23h92.41v15.23l-72.43,89.5-7.83,9.06h82.38v15.23h-102Z"/></g></g><path class="cls-2" d="M720.43,503.52l-47.75-93.01,47.75,93.01Z"/><path class="cls-6" d="M774.24,197.46l-36.25,31.72c-6.43,5.63-10.12,13.76-10.12,22.3v271.94c0,16.37,13.27,29.64,29.64,29.64h300.94c16.37,0,29.64-13.27,29.64-29.64V254.32c0-8.66-3.79-16.89-10.38-22.52l-40.41-34.56c-5.37-4.59-12.2-7.11-19.26-7.11h-224.28c-7.18,0-14.11,2.61-19.52,7.33h0Z"/><path class="cls-3" d="M1053.05,540.73l45.7-90.19-45.7,90.19Z"/><rect class="cls-6" x="775.77" y="190.13" width="260.05" height="266.9" rx="16.69" ry="16.69"/><g class="cls-9"><g class="cls-9"><path class="cls-7" d="M869.26,392.39v-129.02h93.29v15.23h-76.21v39.52h71.38v15.14h-71.38v43.92h79.21v15.23h-96.28Z"/></g><g class="cls-9"><path class="cls-4" d="M869.26,392.39v-129.02h93.29v15.23h-76.21v39.52h71.38v15.14h-71.38v43.92h79.21v15.23h-96.28Z"/></g></g><path class="cls-6" d="M221.73,456.46l-36.25,31.72c-6.43,5.63-10.12,13.76-10.12,22.3v271.94c0,16.37,13.27,29.64,29.64,29.64h300.94c16.37,0,29.64-13.27,29.64-29.64v-269.1c0-8.66-3.79-16.89-10.38-22.52l-40.41-34.56c-5.37-4.59-12.2-7.11-19.26-7.11h-224.28c-7.18,0-14.11,2.61-19.52,7.33h0Z"/><path class="cls-3" d="M180.97,799.73l45.7-90.19-45.7,90.19Z"/><rect class="cls-6" x="223.26" y="449.13" width="260.05" height="266.9" rx="14.85" ry="14.85"/><g class="cls-9"><g class="cls-9"><path class="cls-7" d="M316.65,651.4v-129.02h57.21c11.5,0,20.24,1.16,26.23,3.48,5.98,2.32,10.77,6.41,14.35,12.28,3.58,5.87,5.37,12.35,5.37,19.45,0,9.15-2.96,16.87-8.89,23.15-5.93,6.28-15.08,10.27-27.46,11.97,4.52,2.17,7.95,4.31,10.3,6.42,4.99,4.58,9.71,10.3,14.17,17.16l22.44,35.12h-21.47l-17.07-26.84c-4.99-7.74-9.1-13.67-12.32-17.78-3.23-4.11-6.12-6.98-8.67-8.62-2.55-1.64-5.15-2.79-7.79-3.43-1.94-.41-5.1-.62-9.5-.62h-19.8v57.29h-17.07ZM333.72,579.32h36.7c7.8,0,13.91-.81,18.31-2.42,4.4-1.61,7.74-4.19,10.03-7.74,2.29-3.55,3.43-7.41,3.43-11.57,0-6.1-2.22-11.12-6.64-15.05-4.43-3.93-11.43-5.9-20.99-5.9h-40.84v42.68Z"/></g><g class="cls-9"><path class="cls-4" d="M316.65,651.4v-129.02h57.21c11.5,0,20.24,1.16,26.23,3.48,5.98,2.32,10.77,6.41,14.35,12.28,3.58,5.87,5.37,12.35,5.37,19.45,0,9.15-2.96,16.87-8.89,23.15-5.93,6.28-15.08,10.27-27.46,11.97,4.52,2.17,7.95,4.31,10.3,6.42,4.99,4.58,9.71,10.3,14.17,17.16l22.44,35.12h-21.47l-17.07-26.84c-4.99-7.74-9.1-13.67-12.32-17.78-3.23-4.11-6.12-6.98-8.67-8.62-2.55-1.64-5.15-2.79-7.79-3.43-1.94-.41-5.1-.62-9.5-.62h-19.8v57.29h-17.07ZM333.72,579.32h36.7c7.8,0,13.91-.81,18.31-2.42,4.4-1.61,7.74-4.19,10.03-7.74,2.29-3.55,3.43-7.41,3.43-11.57,0-6.1-2.22-11.12-6.64-15.05-4.43-3.93-11.43-5.9-20.99-5.9h-40.84v42.68Z"/></g></g><path class="cls-2" d="M528.13,809.03l-47.75-93.01,47.75,93.01Z"/><path class="cls-6" d="M581.94,456.46l-36.25,31.72c-6.43,5.63-10.12,13.76-10.12,22.3v271.94c0,16.37,13.27,29.64,29.64,29.64h300.94c16.37,0,29.64-13.27,29.64-29.64v-269.1c0-8.66-3.79-16.89-10.38-22.52l-40.41-34.56c-5.37-4.59-12.2-7.11-19.26-7.11h-224.28c-7.18,0-14.11,2.61-19.52,7.33h0Z"/><path class="cls-2" d="M1599.32,801.14l-47.75-93.01,47.75,93.01Z"/><path class="cls-3" d="M1263.45,807.62l45.7-90.19-45.7,90.19Z"/><path class="cls-3" d="M541.19,799.73l45.7-90.19-45.7,90.19Z"/><rect class="cls-6" x="583.48" y="449.13" width="260.05" height="266.9" rx="19.23" ry="19.23"/><g class="cls-9"><g class="cls-9"><path class="cls-7" d="M709.44,651.4v-113.79h-42.51v-15.23h102.26v15.23h-42.68v113.79h-17.07Z"/></g><g class="cls-9"><path class="cls-4" d="M709.44,651.4v-113.79h-42.51v-15.23h102.26v15.23h-42.68v113.79h-17.07Z"/></g></g><path class="cls-3" d="M1116.08,472.7l45.7-90.19-45.7,90.19Z"/><path class="cls-2" d="M886.35,807.03l-47.75-93.01,47.75,93.01Z"/><path class="cls-6" d="M942.16,456.46l-36.25,31.72c-6.43,5.63-10.12,13.76-10.12,22.3v271.94c0,16.37,13.27,29.64,29.64,29.64h300.94c16.37,0,29.64-13.27,29.64-29.64v-269.1c0-8.66-3.79-16.89-10.38-22.52l-40.41-34.56c-5.37-4.59-12.2-7.11-19.26-7.11h-224.28c-7.18,0-14.11,2.61-19.52,7.33h0Z"/><path class="cls-3" d="M901.4,799.73l45.7-90.19-45.7,90.19Z"/><rect class="cls-6" x="943.7" y="449.13" width="260.05" height="266.9" rx="18.14" ry="18.14"/><g class="cls-9"><g class="cls-9"><path class="cls-7" d="M1073.17,651.4v-54.65l-49.72-74.37h20.77l25.43,38.9c4.69,7.28,9.06,14.55,13.11,21.83,3.87-6.75,8.57-14.35,14.08-22.79l24.99-37.93h19.89l-51.48,74.37v54.65h-17.07Z"/></g><g class="cls-9"><path class="cls-4" d="M1073.17,651.4v-54.65l-49.72-74.37h20.77l25.43,38.9c4.69,7.28,9.06,14.55,13.11,21.83,3.87-6.75,8.57-14.35,14.08-22.79l24.99-37.93h19.89l-51.48,74.37v54.65h-17.07Z"/></g></g><path class="cls-2" d="M1248.57,808.03l-47.75-93.01,47.75,93.01Z"/><path class="cls-3" d="M1029.38,131.66l45.7-90.19-45.7,90.19Z"/><path class="cls-3" d="M908.71,101.25L911.02.17l-2.31,101.08Z"/><path class="cls-3" d="M786.35,136.99l-58.62-82.38,58.62,82.38Z"/><path class="cls-6" d="M1187.98,143.87h313.94c36.48,0,66.09,29.61,66.09,66.09v162.48c0,21.01-17.06,38.08-38.08,38.08h-341.95c-21.01,0-38.08-17.06-38.08-38.08v-190.49c0-21.01,17.06-38.08,38.08-38.08Z"/><rect class="cls-6" x="1301.12" y="312.92" width="266.9" height="426.21" rx="36.66" ry="36.66"/><rect class="cls-8" x="1310.23" y="226.26" width="250.22" height="290.65"/><rect class="cls-8" x="1200.82" y="276.09" width="290.65" height="126.82"/><line class="cls-1" x1="1249.47" y1="243.08" x2="1201.41" y2="291.34"/><line class="cls-1" x1="1253.08" y1="337.97" x2="1200.66" y2="281.76"/><line class="cls-1" x1="1208.24" y1="287.54" x2="1358.96" y2="287.54"/><line class="cls-1" x1="1351.51" y1="240.41" x2="1351.51" y2="294.53"/></svg>